# Blender v2.71 (sub 0) OBJ File: ''
# www.blender.org
mtllib finalRoom2.mtl
o Room_Cube
v 8.000000 2.500001 -5.000000
v 8.000000 0.000001 -5.000000
v 8.000000 -0.000001 5.000000
v 8.000000 2.499999 5.000000
v -4.000000 2.500000 -0.043750
v -4.000000 0.000000 -0.043750
v -3.999999 0.000001 -3.422034
v -3.999999 2.000000 -3.422034
v -4.000001 0.000001 -5.000000
v -4.000000 -0.000001 5.000000
v -4.000000 2.499999 5.000000
v -4.000000 -0.000000 0.043750
v -4.000000 2.500000 0.043750
v -4.000000 0.000001 -4.422034
v -4.087501 0.000001 -4.422034
v -4.087500 0.000001 -3.422034
v 1.500000 0.000001 -5.000000
v 2.500000 0.000001 -5.000000
v 2.500000 0.000001 -5.087500
v 1.500000 0.000001 -5.087500
v -4.000000 2.500001 -5.000000
v 1.500000 2.000001 -5.000000
v 2.500000 2.000001 -5.000000
v -4.000000 2.000001 -4.422033
v 2.500000 2.000001 -5.087500
v 1.500000 2.000001 -5.087500
v 1.000000 0.000001 -5.087500
v 3.000000 0.000001 -5.087500
v 3.000000 0.000001 -7.000000
v 0.999997 0.000001 -7.000000
v 1.000000 2.500001 -5.087500
v 3.000000 2.500001 -5.087500
v 3.000000 2.849992 -10.821050
v 1.000000 2.849992 -10.821050
v 0.999997 2.500001 -7.000000
v 2.999997 2.500001 -7.000000
v 3.000000 2.849992 -14.540712
v 1.000000 2.849992 -14.540712
v 1.000000 5.367545 -10.821049
v 3.000000 5.367545 -10.821049
v 3.000000 0.150001 -7.000000
v 0.999997 0.150001 -7.000000
v 3.000000 0.300001 -7.399997
v 3.000000 0.450001 -7.399997
v 0.999997 0.450001 -7.399997
v 0.999997 0.300001 -7.399997
v 3.000000 0.300001 -7.199999
v 0.999997 0.300001 -7.199998
v 3.000000 0.150001 -7.200000
v 0.999997 0.150001 -7.199999
v 3.000000 0.450001 -7.599997
v 3.000000 0.599999 -7.600000
v 0.999997 0.599999 -7.599999
v 0.999997 0.450001 -7.599997
v 3.000000 0.599998 -7.800000
v 3.000000 0.749998 -7.800000
v 0.999997 0.749998 -7.799999
v 0.999997 0.599998 -7.799999
v 3.000000 0.749998 -8.000000
v 3.000000 0.899998 -8.000000
v 0.999997 0.899998 -8.000000
v 0.999997 0.749998 -7.999999
v 3.000000 0.899998 -8.199999
v 3.000000 1.049998 -8.199999
v 0.999997 1.049998 -8.199999
v 0.999997 0.899998 -8.199999
v 3.000000 1.049998 -8.400000
v 3.000000 1.199998 -8.400001
v 0.999997 1.199998 -8.400001
v 0.999997 1.049998 -8.399999
v 3.000000 1.199998 -8.599999
v 3.000000 1.349998 -8.599999
v 0.999997 1.349998 -8.599999
v 0.999997 1.199998 -8.599999
v 3.000000 1.349998 -8.800000
v 3.000000 1.499998 -8.800003
v 0.999997 1.499998 -8.800001
v 0.999997 1.349998 -8.799999
v 3.000000 1.649999 -9.200002
v 3.000000 1.800000 -9.200002
v 0.999997 1.800000 -9.200001
v 0.999997 1.649999 -9.200001
v 3.000000 1.649999 -9.000004
v 0.999997 1.649999 -9.000002
v 3.000000 1.499999 -9.000004
v 0.999997 1.499999 -9.000004
v 3.000000 1.800000 -9.400002
v 3.000000 1.949998 -9.400004
v 0.999997 1.949998 -9.400003
v 0.999997 1.800000 -9.400002
v 3.000000 1.949997 -9.600004
v 3.000000 2.099997 -9.600004
v 0.999997 2.099997 -9.600004
v 0.999997 1.949997 -9.600004
v 3.000000 2.099997 -9.800004
v 3.000000 2.249997 -9.800005
v 0.999997 2.249997 -9.800005
v 0.999997 2.099997 -9.800003
v 3.000000 2.249997 -10.000004
v 3.000000 2.399997 -10.000004
v 0.999997 2.399997 -10.000004
v 0.999997 2.249997 -10.000004
v 3.000000 2.399997 -10.200005
v 3.000000 2.549997 -10.200005
v 0.999997 2.549997 -10.200005
v 0.999997 2.399997 -10.200003
v 3.000000 2.549997 -10.400003
v 3.000000 2.699997 -10.400003
v 0.999997 2.699997 -10.400003
v 0.999997 2.549997 -10.400003
v 3.000000 2.699997 -10.600004
v 3.000000 2.849997 -10.600004
v 0.999997 2.849997 -10.600004
v 0.999997 2.699997 -10.600004
v 1.000000 5.367546 -14.540711
v 3.000000 5.367546 -14.540711
v 1.500000 2.849992 -14.540712
v 2.500000 2.849992 -14.540710
v 2.500000 2.849992 -14.698722
v 1.500000 2.849992 -14.698724
v 1.500000 4.849992 -14.540711
v 2.500000 4.849992 -14.540711
v 2.500000 4.849992 -14.698723
v 1.500000 4.849992 -14.698723
v 1.000000 2.849992 -14.698725
v 3.000000 2.849992 -14.698721
v 3.000004 2.849989 -18.454485
v 1.000004 2.849989 -18.454489
v 3.000000 5.367542 -14.698724
v 1.000000 5.367542 -14.698724
v 1.000004 5.367539 -18.454489
v 3.000004 5.367539 -18.454489
v 6.499999 -0.000000 0.043750
v 7.499999 -0.000000 0.043750
v 7.499999 0.000000 -0.043751
v 6.499999 0.000000 -0.043751
v 7.999999 2.500000 0.043750
v 5.999999 2.500000 0.043750
v 6.499999 2.000000 0.043750
v 7.499999 2.000000 0.043750
v 5.999999 -0.000000 0.043750
v 7.999999 -0.000000 0.043748
v 6.499999 2.000000 -0.043751
v 7.499999 2.000000 -0.043751
v 5.999999 2.500000 -0.043751
v 7.999999 2.500000 -0.043751
v 5.999999 0.000000 -0.043751
v 7.999999 0.000000 -0.043751
v 4.043751 0.000001 -3.422034
v 4.043750 0.000001 -4.422034
v 3.956250 0.000001 -4.422034
v 3.956251 0.000001 -3.422034
v 4.043750 2.500001 -5.000000
v 4.043752 2.500000 -0.043750
v 4.043751 2.000000 -3.422034
v 4.043750 2.000001 -4.422033
v 4.043752 0.000000 -0.043750
v 4.043748 0.000001 -5.000000
v 3.956251 2.000000 -3.422034
v 3.956250 2.000001 -4.422033
v 3.956251 2.500000 -0.043750
v 3.956249 2.500001 -5.000000
v 3.956251 0.000000 -0.043750
v 3.956249 0.000001 -5.000000
v -2.500000 0.000000 -0.043751
v -3.500000 0.000000 -0.043751
v -3.500000 -0.000000 0.043750
v -2.500000 -0.000000 0.043750
v -2.000000 2.500000 -0.043751
v -2.500000 2.000000 -0.043751
v -3.500000 2.000000 -0.043751
v -2.000000 0.000000 -0.043751
v -2.500000 2.000000 0.043750
v -3.500000 2.000000 0.043750
v -2.000000 2.500000 0.043750
v -2.000000 -0.000000 0.043750
v 0.043751 0.000001 -3.422034
v 0.043750 0.000001 -4.422034
v -0.043750 0.000001 -4.422034
v -0.043749 0.000001 -3.422034
v 0.043751 2.500001 -5.000000
v 0.043752 2.500000 -0.043750
v 0.043751 2.000000 -3.422034
v 0.043750 2.000001 -4.422033
v 0.043752 0.000000 -0.043750
v 0.043749 0.000001 -5.000000
v -0.043749 2.000000 -3.422034
v -0.043750 2.000001 -4.422033
v -0.043749 2.500000 -0.043750
v -0.043750 2.500001 -5.000000
v -0.043749 0.000000 -0.043750
v -0.043750 0.000001 -5.000000
v 0.043751 -0.000001 4.519491
v 0.043750 -0.000001 3.519491
v -0.043750 -0.000001 3.519491
v -0.043749 -0.000001 4.519491
v 0.043750 2.500000 0.043750
v 0.043752 2.499999 5.000000
v 0.043751 1.999999 4.519492
v 0.043750 1.999999 3.519491
v 0.043752 -0.000001 5.000000
v 0.043748 -0.000000 0.043750
v -0.043749 1.999999 4.519492
v -0.043750 1.999999 3.519491
v -0.043749 2.499999 5.000000
v -0.043751 2.500000 0.043750
v -0.043749 -0.000001 5.000000
v -0.043751 -0.000000 0.043750
v 4.043751 -0.000001 4.519491
v 4.043750 -0.000001 3.519491
v 3.956249 -0.000001 3.519491
v 3.956250 -0.000001 4.519491
v 4.043749 2.500000 0.043750
v 4.043751 2.499999 5.000000
v 4.043751 1.999999 4.519492
v 4.043750 1.999999 3.519491
v 4.043751 -0.000001 5.000000
v 4.043747 -0.000000 0.043750
v 3.956250 1.999999 4.519492
v 3.956249 1.999999 3.519491
v 3.956251 2.499999 5.000000
v 3.956249 2.500000 0.043750
v 3.956251 -0.000001 5.000000
v 3.956249 -0.000000 0.043750
v -4.087500 2.000000 -3.422034
v -4.087501 2.000001 -4.422033
v -4.087500 2.500001 -5.000000
v -4.087499 2.500000 -0.043750
v -4.087499 0.000000 -0.043750
v -4.087500 0.000001 -5.000000
vt 0.593819 0.527321
vt 0.541436 0.527321
vt 0.541436 0.316392
vt 0.593819 0.316392
vt 0.310949 0.716233
vt 0.258565 0.716233
vt 0.258565 0.644976
vt 0.300472 0.644976
vt 0.481928 0.021093
vt 0.481928 0.274207
vt 0.272394 0.274207
vt 0.272394 0.021093
vt 0.541436 0.569506
vt 0.593819 0.569506
vt 0.593819 0.674048
vt 0.541436 0.674048
vt 0.979047 0.084371
vt 0.979047 0.105464
vt 0.977213 0.105464
vt 0.977213 0.084371
vt 0.352856 0.569506
vt 0.352855 0.316393
vt 0.363332 0.432403
vt 0.363332 0.453496
vt 0.310949 0.611692
vt 0.300472 0.623883
vt 0.405239 0.569506
vt 0.405239 0.453496
vt 0.979047 0.042186
vt 0.977213 0.042186
vt 0.977213 0.021093
vt 0.979047 0.021093
vt 0.543269 0.922010
vt 0.543269 0.964196
vt 0.541436 0.964196
vt 0.541436 0.922010
vt 0.679466 0.952663
vt 0.679466 0.910477
vt 0.681300 0.910477
vt 0.681300 0.952663
vt 0.660031 0.220488
vt 0.618125 0.220488
vt 0.618125 0.180148
vt 0.660031 0.180148
vt 0.436669 0.768965
vt 0.457622 0.768965
vt 0.468099 0.758419
vt 0.426192 0.758419
vt 0.457622 0.811151
vt 0.468099 0.811151
vt 0.436669 0.811151
vt 0.426192 0.811151
vt 0.618125 0.099551
vt 0.660031 0.099551
vt 0.677633 0.515787
vt 0.635726 0.515787
vt 0.635726 0.475447
vt 0.677633 0.475447
vt 0.153491 0.335035
vt 0.202491 0.316392
vt 0.216659 0.354127
vt 0.167658 0.372770
vt 0.083685 0.542937
vt 0.034685 0.524294
vt 0.048852 0.486559
vt 0.097853 0.505202
vt 0.618125 0.021093
vt 0.660031 0.021093
vt 0.635726 0.394851
vt 0.677633 0.394851
vt 0.189104 0.450772
vt 0.139759 0.469546
vt 0.020953 0.389784
vt 0.070298 0.408558
vt 0.544579 0.879825
vt 0.541436 0.879825
vt 0.541436 0.837639
vt 0.544579 0.837639
vt 0.871139 0.789072
vt 0.874282 0.789072
vt 0.874282 0.831257
vt 0.871139 0.831257
vt 0.635726 0.826106
vt 0.639917 0.826106
vt 0.639917 0.868291
vt 0.635726 0.868291
vt 0.351808 0.895893
vt 0.348665 0.895893
vt 0.348665 0.853707
vt 0.351808 0.853707
vt 0.842326 0.021093
vt 0.846516 0.021093
vt 0.846516 0.063279
vt 0.842326 0.063279
vt 0.873235 0.915629
vt 0.870092 0.915629
vt 0.870092 0.873443
vt 0.873235 0.873443
vt 0.824306 0.557973
vt 0.828497 0.557973
vt 0.828497 0.600159
vt 0.824306 0.600159
vt 0.874282 0.746886
vt 0.871139 0.746886
vt 0.871139 0.704700
vt 0.874282 0.704700
vt 0.825042 0.704700
vt 0.829233 0.704700
vt 0.829233 0.746886
vt 0.825042 0.746886
vt 0.891566 0.147650
vt 0.888423 0.147650
vt 0.888423 0.105464
vt 0.891566 0.105464
vt 0.825042 0.789072
vt 0.829233 0.789072
vt 0.829233 0.831257
vt 0.825042 0.831257
vt 0.888423 0.021093
vt 0.891566 0.021093
vt 0.891566 0.063279
vt 0.888423 0.063279
vt 0.842326 0.189836
vt 0.846516 0.189836
vt 0.846516 0.232021
vt 0.842326 0.232021
vt 0.905145 0.316392
vt 0.908288 0.316392
vt 0.908288 0.358578
vt 0.905145 0.358578
vt 0.796228 0.021093
vt 0.800419 0.021093
vt 0.800419 0.063279
vt 0.796228 0.063279
vt 0.825042 0.873443
vt 0.828185 0.873443
vt 0.828185 0.915629
vt 0.825042 0.915629
vt 0.732112 0.868291
vt 0.727921 0.868291
vt 0.727921 0.826106
vt 0.732112 0.826106
vt 0.586486 0.837639
vt 0.589629 0.837639
vt 0.589629 0.879825
vt 0.586486 0.879825
vt 0.800419 0.147650
vt 0.796228 0.147650
vt 0.796228 0.105464
vt 0.800419 0.105464
vt 0.891566 0.232021
vt 0.888423 0.232021
vt 0.888423 0.189836
vt 0.891566 0.189836
vt 0.188580 0.826767
vt 0.192771 0.826767
vt 0.192771 0.868953
vt 0.188580 0.868953
vt 0.024096 0.895441
vt 0.020953 0.895441
vt 0.020953 0.853255
vt 0.024096 0.853255
vt 0.213724 0.627308
vt 0.209534 0.627308
vt 0.209534 0.585123
vt 0.213724 0.585123
vt 0.909168 0.463119
vt 0.912311 0.463119
vt 0.912311 0.505305
vt 0.909168 0.505305
vt 0.822211 0.505305
vt 0.818020 0.505305
vt 0.818020 0.463119
vt 0.822211 0.463119
vt 0.303615 0.853707
vt 0.306758 0.853707
vt 0.306758 0.895893
vt 0.303615 0.895893
vt 0.800419 0.232021
vt 0.796228 0.232021
vt 0.796228 0.189836
vt 0.800419 0.189836
vt 0.429335 0.895523
vt 0.426192 0.895523
vt 0.426192 0.853337
vt 0.429335 0.853337
vt 0.846516 0.147650
vt 0.842326 0.147650
vt 0.842326 0.105464
vt 0.846516 0.105464
vt 0.258565 0.853707
vt 0.261708 0.853707
vt 0.261708 0.895893
vt 0.258565 0.895893
vt 0.686014 0.868291
vt 0.681823 0.868291
vt 0.681823 0.826106
vt 0.686014 0.826106
vt 0.471242 0.853337
vt 0.474385 0.853337
vt 0.474385 0.895523
vt 0.471242 0.895523
vt 0.818020 0.358578
vt 0.813830 0.358578
vt 0.813830 0.316392
vt 0.818020 0.316392
vt 0.864118 0.463119
vt 0.867261 0.463119
vt 0.867261 0.505305
vt 0.864118 0.505305
vt 0.774018 0.826106
vt 0.778209 0.826106
vt 0.778209 0.868291
vt 0.774018 0.868291
vt 0.870404 0.557973
vt 0.873547 0.557973
vt 0.873547 0.600159
vt 0.870404 0.600159
vt 0.771923 0.463119
vt 0.776114 0.463119
vt 0.776114 0.505305
vt 0.771923 0.505305
vt 0.635726 0.316392
vt 0.677633 0.316392
vt 0.216659 0.524163
vt 0.167314 0.542937
vt 0.048508 0.316392
vt 0.097853 0.335166
vt 0.660031 0.104214
vt 0.618125 0.104214
vt 0.585176 0.943103
vt 0.585176 0.922010
vt 0.588487 0.922010
vt 0.588487 0.943103
vt 0.146674 0.731850
vt 0.104767 0.731850
vt 0.115244 0.742766
vt 0.136197 0.742766
vt 0.104767 0.784952
vt 0.115244 0.784952
vt 0.146674 0.784952
vt 0.136197 0.784952
vt 0.863238 0.316392
vt 0.863238 0.358578
vt 0.859927 0.358578
vt 0.859927 0.316392
vt 0.108078 0.827138
vt 0.108078 0.869323
vt 0.104767 0.869323
vt 0.104767 0.827138
vt 0.024264 0.937627
vt 0.024264 0.958719
vt 0.020953 0.958719
vt 0.020953 0.937627
vt 0.541436 0.716234
vt 0.583343 0.716233
vt 0.583343 0.795453
vt 0.541436 0.795453
vt 0.289995 0.758419
vt 0.289995 0.800605
vt 0.300472 0.811521
vt 0.300472 0.758419
vt 0.269042 0.800605
vt 0.269042 0.758419
vt 0.258565 0.758419
vt 0.258565 0.811521
vt 0.342379 0.811521
vt 0.342379 0.758419
vt 0.384285 0.758419
vt 0.384285 0.811521
vt 0.635726 0.704700
vt 0.688477 0.704700
vt 0.688477 0.783920
vt 0.635726 0.783920
vt 0.730384 0.704700
vt 0.783135 0.704700
vt 0.783135 0.783920
vt 0.730384 0.783920
vt 0.062860 0.811069
vt 0.020953 0.811069
vt 0.020953 0.731850
vt 0.062860 0.731850
vt 0.447146 0.569506
vt 0.447146 0.527321
vt 0.457622 0.537867
vt 0.457622 0.558960
vt 0.499529 0.527321
vt 0.499529 0.537867
vt 0.499529 0.569506
vt 0.499529 0.558960
vt 0.347879 0.938078
vt 0.347879 0.959171
vt 0.346046 0.959171
vt 0.346046 0.938078
vt 0.950195 0.358578
vt 0.950195 0.316392
vt 0.952028 0.316392
vt 0.952028 0.358578
vt 0.933473 0.063278
vt 0.933473 0.021093
vt 0.935306 0.021093
vt 0.935306 0.063278
vt 0.730016 0.494759
vt 0.730016 0.473666
vt 0.719540 0.463119
vt 0.719540 0.505305
vt 0.534311 0.021093
vt 0.576218 0.021093
vt 0.576218 0.031639
vt 0.523834 0.031639
vt 0.188580 0.784582
vt 0.188580 0.742396
vt 0.199057 0.731850
vt 0.199057 0.784582
vt 0.754322 0.021093
vt 0.754322 0.125634
vt 0.743845 0.054377
vt 0.743845 0.033284
vt 0.701938 0.125634
vt 0.701938 0.054377
vt 0.701938 0.021093
vt 0.701938 0.033284
vt 0.428026 0.937708
vt 0.428026 0.958801
vt 0.426192 0.958801
vt 0.426192 0.937708
vt 0.918023 0.789072
vt 0.918023 0.831257
vt 0.916189 0.831257
vt 0.916189 0.789072
vt 0.104767 0.953695
vt 0.104767 0.911509
vt 0.106600 0.911509
vt 0.106600 0.953695
vt 0.394762 0.704042
vt 0.394762 0.682950
vt 0.405239 0.611692
vt 0.405239 0.716233
vt 0.352855 0.682950
vt 0.352855 0.611692
vt 0.352855 0.704042
vt 0.352855 0.716233
vt 0.523834 0.242568
vt 0.523834 0.200382
vt 0.534311 0.210928
vt 0.534311 0.232021
vt 0.576218 0.200382
vt 0.576218 0.210928
vt 0.576218 0.242568
vt 0.576218 0.232021
vt 0.825042 0.978907
vt 0.825042 0.957814
vt 0.826875 0.957814
vt 0.826875 0.978907
vt 0.918023 0.704700
vt 0.918023 0.746886
vt 0.916189 0.746886
vt 0.916189 0.704700
vt 0.935306 0.189836
vt 0.935306 0.232021
vt 0.933473 0.232021
vt 0.933473 0.189836
vt 0.457622 0.326939
vt 0.457622 0.348032
vt 0.447146 0.358578
vt 0.447146 0.316392
vt 0.499529 0.348032
vt 0.499529 0.358578
vt 0.499529 0.326939
vt 0.499529 0.316392
vt 0.771923 0.316392
vt 0.771923 0.420934
vt 0.761446 0.349676
vt 0.761446 0.328583
vt 0.719540 0.420934
vt 0.719540 0.349676
vt 0.719540 0.316392
vt 0.719540 0.328583
vt 0.260399 0.938078
vt 0.260399 0.959171
vt 0.258565 0.959171
vt 0.258565 0.938078
vt 0.917287 0.557973
vt 0.917287 0.600159
vt 0.915454 0.600159
vt 0.915454 0.557973
vt 0.766947 0.952663
vt 0.766947 0.910477
vt 0.768780 0.910477
vt 0.768780 0.952663
vt 0.489052 0.704042
vt 0.489052 0.682950
vt 0.499529 0.611692
vt 0.499529 0.716233
vt 0.447146 0.682950
vt 0.447146 0.611692
vt 0.447146 0.704042
vt 0.447146 0.716233
vt 0.782400 0.557973
vt 0.782400 0.662515
vt 0.771923 0.652379
vt 0.771923 0.631286
vt 0.730016 0.662515
vt 0.730016 0.652379
vt 0.730016 0.557973
vt 0.730016 0.631286
vt 0.870616 0.957814
vt 0.870616 0.978907
vt 0.868782 0.978907
vt 0.868782 0.957814
vt 0.916975 0.873443
vt 0.916975 0.915629
vt 0.915141 0.915629
vt 0.915141 0.873443
vt 0.723206 0.952663
vt 0.723206 0.910477
vt 0.725040 0.910477
vt 0.725040 0.952663
vt 0.677633 0.589201
vt 0.677633 0.568108
vt 0.688110 0.557973
vt 0.688110 0.662515
vt 0.635726 0.568108
vt 0.635726 0.557973
vt 0.635726 0.589201
vt 0.635726 0.662515
vt 0.020953 0.689664
vt 0.020953 0.585123
vt 0.031430 0.595258
vt 0.031430 0.616351
vt 0.073337 0.585123
vt 0.073337 0.595258
vt 0.073337 0.689664
vt 0.073337 0.616351
vt 0.914356 0.957814
vt 0.914356 0.978907
vt 0.912522 0.978907
vt 0.912522 0.957814
vt 0.637559 0.910477
vt 0.637559 0.952663
vt 0.635726 0.952663
vt 0.635726 0.910477
vt 0.954217 0.505305
vt 0.954217 0.463119
vt 0.956051 0.463119
vt 0.956051 0.505305
vt 0.125720 0.658436
vt 0.125720 0.679529
vt 0.115244 0.689664
vt 0.115244 0.585123
vt 0.167627 0.679529
vt 0.167627 0.689664
vt 0.167627 0.658436
vt 0.167627 0.585123
vt 0.258565 0.611692
vt 0.258565 0.623883
vt 0.469932 0.958801
vt 0.469932 0.937708
vt 0.471766 0.937708
vt 0.471766 0.958801
vt 0.188580 0.953324
vt 0.188580 0.911139
vt 0.190414 0.911139
vt 0.190414 0.953324
vt 0.933473 0.147650
vt 0.933473 0.105464
vt 0.935306 0.105464
vt 0.935306 0.147650
vt 0.743845 0.180011
vt 0.754322 0.167820
vt 0.754322 0.272361
vt 0.743845 0.201104
vt 0.701938 0.272361
vt 0.701938 0.201104
vt 0.701938 0.180011
vt 0.701938 0.167820
vt 0.405239 0.316392
vt 0.405239 0.432403
vt 0.310949 0.316392
vt 0.310949 0.569506
vt 0.258565 0.569506
vt 0.258565 0.316392
vt 0.020953 0.021093
vt 0.230487 0.021093
vt 0.230487 0.274207
vt 0.020953 0.274207
vn -1.000000 -0.000000 0.000000
vn 1.000000 -0.000000 0.000000
vn 0.000000 1.000000 0.000000
vn 0.000000 0.000000 1.000000
vn 0.000000 0.000000 -1.000000
vn 0.000000 0.801600 0.597900
vn 0.000000 -1.000000 -0.000000
vn 0.000000 -0.799800 -0.600200
usemtl None
s off
f 1/1/1 2/2/1 3/3/1 4/4/1
f 5/5/2 6/6/2 7/7/2 8/8/2
f 2/9/3 9/10/3 10/11/3 3/12/3
f 11/13/2 10/14/2 12/15/2 13/16/2
f 17/17/3 18/18/3 19/19/3 20/20/3
f 1/21/4 21/22/4 22/23/4 23/24/4
f 21/25/2 5/5/2 8/8/2 24/26/2
f 2/27/4 1/21/4 23/24/4 18/28/4
f 23/29/3 25/30/3 26/31/3 22/32/3
f 22/33/2 17/34/2 20/35/2 26/36/2
f 18/37/1 23/38/1 25/39/1 19/40/1
f 27/41/3 28/42/3 29/43/3 30/44/3
f 25/45/5 26/46/5 31/47/5 32/48/5
f 26/46/5 20/49/5 27/50/5 31/47/5
f 19/51/5 25/45/5 32/48/5 28/52/5
f 30/44/6 29/43/6 33/53/6 34/54/6
f 32/55/7 31/56/7 35/57/7 36/58/7
f 31/59/2 27/60/2 30/61/2 35/62/2
f 28/63/1 32/64/1 36/65/1 29/66/1
f 34/54/3 33/53/3 37/67/3 38/68/3
f 36/58/8 35/57/8 39/69/8 40/70/8
f 35/62/2 30/61/2 34/71/2 39/72/2
f 29/66/1 36/65/1 40/73/1 33/74/1
f 29/75/4 41/76/4 42/77/4 30/78/4
f 43/79/4 44/80/4 45/81/4 46/82/4
f 47/83/3 43/84/3 46/85/3 48/86/3
f 49/87/4 47/88/4 48/89/4 50/90/4
f 41/91/3 49/92/3 50/93/3 42/94/3
f 51/95/4 52/96/4 53/97/4 54/98/4
f 44/99/3 51/100/3 54/101/3 45/102/3
f 55/103/4 56/104/4 57/105/4 58/106/4
f 52/107/3 55/108/3 58/109/3 53/110/3
f 59/111/4 60/112/4 61/113/4 62/114/4
f 56/115/3 59/116/3 62/117/3 57/118/3
f 63/119/4 64/120/4 65/121/4 66/122/4
f 60/123/3 63/124/3 66/125/3 61/126/3
f 67/127/4 68/128/4 69/129/4 70/130/4
f 64/131/3 67/132/3 70/133/3 65/134/3
f 71/135/4 72/136/4 73/137/4 74/138/4
f 68/139/3 71/140/3 74/141/3 69/142/3
f 75/143/4 76/144/4 77/145/4 78/146/4
f 72/147/3 75/148/3 78/149/3 73/150/3
f 79/151/4 80/152/4 81/153/4 82/154/4
f 83/155/3 79/156/3 82/157/3 84/158/3
f 85/159/4 83/160/4 84/161/4 86/162/4
f 76/163/3 85/164/3 86/165/3 77/166/3
f 87/167/4 88/168/4 89/169/4 90/170/4
f 80/171/3 87/172/3 90/173/3 81/174/3
f 91/175/4 92/176/4 93/177/4 94/178/4
f 88/179/3 91/180/3 94/181/3 89/182/3
f 95/183/4 96/184/4 97/185/4 98/186/4
f 92/187/3 95/188/3 98/189/3 93/190/3
f 99/191/4 100/192/4 101/193/4 102/194/4
f 96/195/3 99/196/3 102/197/3 97/198/3
f 103/199/4 104/200/4 105/201/4 106/202/4
f 100/203/3 103/204/3 106/205/3 101/206/3
f 107/207/4 108/208/4 109/209/4 110/210/4
f 104/211/3 107/212/3 110/213/3 105/214/3
f 111/215/4 112/216/4 113/217/4 114/218/4
f 108/219/3 111/220/3 114/221/3 109/222/3
f 40/70/7 39/69/7 115/223/7 116/224/7
f 39/72/2 34/71/2 38/225/2 115/226/2
f 33/74/1 40/73/1 116/227/1 37/228/1
f 113/229/3 112/230/3 33/53/3 34/54/3
f 117/231/3 118/232/3 119/233/3 120/234/3
f 116/235/4 115/236/4 121/237/4 122/238/4
f 115/236/4 38/239/4 117/240/4 121/237/4
f 37/241/4 116/235/4 122/238/4 118/242/4
f 118/243/1 122/244/1 123/245/1 119/246/1
f 121/247/2 117/248/2 120/249/2 124/250/2
f 122/251/7 121/252/7 124/253/7 123/254/7
f 125/255/3 126/256/3 127/257/3 128/258/3
f 119/259/5 123/260/5 129/261/5 126/262/5
f 124/263/5 120/264/5 125/265/5 130/266/5
f 123/260/5 124/263/5 130/266/5 129/261/5
f 131/267/4 128/268/4 127/269/4 132/270/4
f 126/271/1 129/272/1 132/273/1 127/274/1
f 130/275/2 125/276/2 128/277/2 131/278/2
f 129/279/7 130/280/7 131/281/7 132/282/7
f 137/283/4 138/284/4 139/285/4 140/286/4
f 138/284/4 141/287/4 133/288/4 139/285/4
f 142/289/4 137/283/4 140/286/4 134/290/4
f 140/291/7 139/292/7 143/293/7 144/294/7
f 139/295/2 133/296/2 136/297/2 143/298/2
f 134/299/1 140/300/1 144/301/1 135/302/1
f 144/303/5 143/304/5 145/305/5 146/306/5
f 143/307/5 136/308/5 147/309/5 145/310/5
f 135/311/5 144/312/5 146/313/5 148/314/5
f 153/315/2 154/316/2 155/317/2 156/318/2
f 154/316/2 157/319/2 149/320/2 155/317/2
f 158/321/2 153/315/2 156/318/2 150/322/2
f 156/323/7 155/324/7 159/325/7 160/326/7
f 155/327/5 149/328/5 152/329/5 159/330/5
f 150/331/4 156/332/4 160/333/4 151/334/4
f 160/335/1 159/336/1 161/337/1 162/338/1
f 159/336/1 152/339/1 163/340/1 161/337/1
f 151/341/1 160/335/1 162/338/1 164/342/1
f 5/343/5 169/344/5 170/345/5 171/346/5
f 169/344/5 172/347/5 165/348/5 170/345/5
f 6/349/5 5/343/5 171/346/5 166/350/5
f 171/351/7 170/352/7 173/353/7 174/354/7
f 170/355/1 165/356/1 168/357/1 173/358/1
f 166/359/2 171/360/2 174/361/2 167/362/2
f 174/363/4 173/364/4 175/365/4 13/366/4
f 173/364/4 168/367/4 176/368/4 175/365/4
f 167/369/4 174/363/4 13/366/4 12/370/4
f 141/287/4 138/284/4 175/365/4 176/368/4
f 147/309/5 172/347/5 169/344/5 145/310/5
f 181/371/2 182/372/2 183/373/2 184/374/2
f 182/372/2 185/375/2 177/376/2 183/373/2
f 186/377/2 181/371/2 184/374/2 178/378/2
f 184/379/7 183/380/7 187/381/7 188/382/7
f 183/383/5 177/384/5 180/385/5 187/386/5
f 178/387/4 184/388/4 188/389/4 179/390/4
f 188/391/1 187/392/1 189/393/1 190/394/1
f 187/392/1 180/395/1 191/396/1 189/393/1
f 179/397/1 188/391/1 190/394/1 192/398/1
f 197/399/2 198/400/2 199/401/2 200/402/2
f 198/400/2 201/403/2 193/404/2 199/401/2
f 202/405/2 197/399/2 200/402/2 194/406/2
f 200/407/7 199/408/7 203/409/7 204/410/7
f 199/411/5 193/412/5 196/413/5 203/414/5
f 194/415/4 200/416/4 204/417/4 195/418/4
f 204/419/1 203/420/1 205/421/1 206/422/1
f 203/420/1 196/423/1 207/424/1 205/421/1
f 195/425/1 204/419/1 206/422/1 208/426/1
f 213/427/2 214/428/2 215/429/2 216/430/2
f 214/428/2 217/431/2 209/432/2 215/429/2
f 218/433/2 213/427/2 216/430/2 210/434/2
f 216/435/7 215/436/7 219/437/7 220/438/7
f 215/439/5 209/440/5 212/441/5 219/442/5
f 210/443/4 216/444/4 220/445/4 211/446/4
f 220/447/1 219/448/1 221/449/1 222/450/1
f 219/448/1 212/451/1 223/452/1 221/449/1
f 211/453/1 220/447/1 222/450/1 224/454/1
f 9/455/2 21/25/2 24/26/2 14/456/2
f 24/457/7 8/458/7 225/459/7 226/460/7
f 8/461/5 7/462/5 16/463/5 225/464/5
f 14/465/4 24/466/4 226/467/4 15/468/4
f 226/469/2 227/470/2 228/471/2 225/472/2
f 225/472/2 228/471/2 229/473/2 16/474/2
f 15/475/2 230/476/2 227/470/2 226/469/2
f 9/477/4 17/478/4 22/23/4 21/22/4
f 3/479/5 10/480/5 11/481/5 4/482/5
f 1/483/7 4/484/7 11/485/7 21/486/7
