# Blender v2.71 (sub 0) OBJ File: 'Room_1.blend'
# www.blender.org
mtllib finalRoom.mtl
o Room_Cube
v 8.000000 0.000000 -5.000000
v 8.000000 0.000000 5.000000
v -4.000000 0.000000 5.000000
v -4.000001 0.000000 -5.000000
v 8.000000 2.500000 -5.000000
v 8.000000 2.500000 5.000000
v -4.000000 2.500000 5.000000
v -4.000000 2.500000 -5.000000
v 2.500000 0.000000 -5.000000
v 1.500000 0.000000 -5.000000
v 2.500000 2.000000 -5.000000
v 1.500000 2.000000 -5.000000
v 2.500000 0.000000 -5.087500
v 1.500000 0.000000 -5.087500
v 2.500000 2.000000 -5.087500
v 1.500000 2.000000 -5.087500
v 3.000000 0.000000 -5.087500
v 1.000000 0.000000 -5.087500
v 3.000000 2.500000 -5.087500
v 1.000000 2.500000 -5.087500
v 3.000000 0.000000 -7.000000
v 0.999997 0.000000 -7.000000
v 2.999997 2.500000 -7.000000
v 0.999997 2.500000 -7.000000
v 3.000000 2.849990 -10.821050
v 1.000000 2.849990 -10.821050
v 3.000000 5.367543 -10.821050
v 1.000000 5.367543 -10.821050
v 3.000000 0.150000 -7.000000
v 0.999997 0.150000 -7.000000
v 0.999997 0.450000 -7.399997
v 3.000000 0.450000 -7.399997
v 0.999997 0.150000 -7.199999
v 3.000000 0.300000 -7.399997
v 0.999997 0.300000 -7.399997
v 3.000000 0.150000 -7.200000
v 0.999997 0.300000 -7.199998
v 3.000000 0.300000 -7.199999
v 0.999997 0.599998 -7.599999
v 3.000000 0.599998 -7.600000
v 3.000000 0.450000 -7.599997
v 0.999997 0.450000 -7.599997
v 0.999997 0.749997 -7.799999
v 3.000000 0.749997 -7.800000
v 3.000000 0.599997 -7.800000
v 0.999997 0.599997 -7.799999
v 0.999997 0.899997 -8.000000
v 3.000000 0.899997 -8.000000
v 3.000000 0.749997 -8.000000
v 0.999997 0.749997 -7.999999
v 0.999997 1.049997 -8.199999
v 3.000000 1.049997 -8.199999
v 3.000000 0.899997 -8.199999
v 0.999997 0.899997 -8.199999
v 0.999997 1.199997 -8.400001
v 3.000000 1.199997 -8.400001
v 3.000000 1.049997 -8.400000
v 0.999997 1.049997 -8.399999
v 0.999997 1.349997 -8.599999
v 3.000000 1.349997 -8.599999
v 3.000000 1.199997 -8.599999
v 0.999997 1.199997 -8.599999
v 0.999997 1.499997 -8.800001
v 3.000000 1.499997 -8.800003
v 3.000000 1.349997 -8.800000
v 0.999997 1.349997 -8.799999
v 0.999997 1.799998 -9.200001
v 3.000000 1.799998 -9.200002
v 0.999997 1.499998 -9.000004
v 3.000000 1.649998 -9.200002
v 0.999997 1.649998 -9.200001
v 3.000000 1.499998 -9.000004
v 0.999997 1.649998 -9.000002
v 3.000000 1.649998 -9.000004
v 0.999997 1.949996 -9.400003
v 3.000000 1.949996 -9.400004
v 3.000000 1.799998 -9.400002
v 0.999997 1.799998 -9.400002
v 0.999997 2.099995 -9.600004
v 3.000000 2.099995 -9.600004
v 3.000000 1.949995 -9.600004
v 0.999997 1.949995 -9.600004
v 0.999997 2.249995 -9.800005
v 3.000000 2.249995 -9.800005
v 3.000000 2.099995 -9.800004
v 0.999997 2.099995 -9.800003
v 0.999997 2.399995 -10.000004
v 3.000000 2.399995 -10.000004
v 3.000000 2.249995 -10.000004
v 0.999997 2.249995 -10.000004
v 0.999997 2.549995 -10.200005
v 3.000000 2.549995 -10.200005
v 3.000000 2.399995 -10.200005
v 0.999997 2.399995 -10.200003
v 0.999997 2.699995 -10.400003
v 3.000000 2.699995 -10.400003
v 3.000000 2.549995 -10.400003
v 0.999997 2.549995 -10.400003
v 0.999997 2.849995 -10.600004
v 3.000000 2.849995 -10.600004
v 3.000000 2.699995 -10.600004
v 0.999997 2.699995 -10.600004
v 3.000000 2.849990 -14.540712
v 1.000000 2.849990 -14.540712
v 3.000000 5.367543 -14.540712
v 1.000000 5.367543 -14.540712
v 1.500000 2.849990 -14.540712
v 2.500000 2.849990 -14.540710
v 2.500000 4.849990 -14.540712
v 1.500000 4.849990 -14.540712
v 1.500000 2.849990 -14.698724
v 2.500000 2.849990 -14.698722
v 2.500000 4.849990 -14.698724
v 1.500000 4.849990 -14.698724
v 1.000000 2.849990 -14.698725
v 3.000000 2.849990 -14.698721
v 3.000000 5.367540 -14.698725
v 1.000000 5.367540 -14.698725
v 1.000004 2.849986 -18.454489
v 3.000004 2.849986 -18.454485
v 3.000004 5.367536 -18.454489
v 1.000004 5.367536 -18.454489
v 7.999999 0.000000 0.043748
v 5.999999 0.000000 0.043750
v 7.999999 2.500000 0.043750
v 5.999999 2.500000 0.043750
v 7.499999 0.000000 0.043750
v 6.499999 0.000000 0.043750
v 7.499999 2.000000 0.043750
v 6.499999 2.000000 0.043750
v 7.499999 0.000000 -0.043751
v 6.499999 0.000000 -0.043751
v 7.499999 2.000000 -0.043751
v 6.499999 2.000000 -0.043751
v 7.999999 0.000000 -0.043751
v 5.999999 0.000000 -0.043751
v 7.999999 2.500000 -0.043751
v 5.999999 2.500000 -0.043751
v 4.043748 0.000000 -5.000000
v 4.043752 0.000000 -0.043750
v 4.043750 2.500000 -5.000000
v 4.043752 2.500000 -0.043750
v 4.043750 0.000000 -4.422034
v 4.043751 0.000000 -3.422034
v 4.043750 2.000000 -4.422034
v 4.043751 2.000000 -3.422034
v 3.956250 0.000000 -4.422034
v 3.956251 0.000000 -3.422034
v 3.956250 2.000000 -4.422034
v 3.956251 2.000000 -3.422034
v 3.956249 0.000000 -5.000000
v 3.956251 0.000000 -0.043750
v 3.956249 2.500000 -5.000000
v 3.956251 2.500000 -0.043750
v -4.000000 0.000000 -0.043750
v -2.000000 0.000000 -0.043751
v -4.000000 2.500000 -0.043750
v -2.000000 2.500000 -0.043751
v -3.500000 0.000000 -0.043751
v -2.500000 0.000000 -0.043751
v -3.500000 2.000000 -0.043751
v -2.500000 2.000000 -0.043751
v -3.500000 0.000000 0.043750
v -2.500000 0.000000 0.043750
v -3.500000 2.000000 0.043750
v -2.500000 2.000000 0.043750
v -4.000000 0.000000 0.043750
v -2.000000 0.000000 0.043750
v -4.000000 2.500000 0.043750
v -2.000000 2.500000 0.043750
v 0.043749 0.000000 -5.000000
v 0.043752 0.000000 -0.043750
v 0.043751 2.500000 -5.000000
v 0.043752 2.500000 -0.043750
v 0.043750 0.000000 -4.422034
v 0.043751 0.000000 -3.422034
v 0.043750 2.000000 -4.422034
v 0.043751 2.000000 -3.422034
v -0.043750 0.000000 -4.422034
v -0.043749 0.000000 -3.422034
v -0.043750 2.000000 -4.422034
v -0.043749 2.000000 -3.422034
v -0.043750 0.000000 -5.000000
v -0.043749 0.000000 -0.043750
v -0.043750 2.500000 -5.000000
v -0.043749 2.500000 -0.043750
v 0.043748 0.000000 0.043750
v 0.043752 0.000000 5.000000
v 0.043750 2.500000 0.043750
v 0.043752 2.500000 5.000000
v 0.043750 0.000000 3.519491
v 0.043751 0.000000 4.519491
v 0.043750 2.000000 3.519491
v 0.043751 2.000000 4.519491
v -0.043750 0.000000 3.519491
v -0.043749 0.000000 4.519491
v -0.043750 2.000000 3.519491
v -0.043749 2.000000 4.519491
v -0.043751 0.000000 0.043750
v -0.043749 0.000000 5.000000
v -0.043751 2.500000 0.043750
v -0.043749 2.500000 5.000000
v 4.043747 0.000000 0.043750
v 4.043751 0.000000 5.000000
v 4.043749 2.500000 0.043750
v 4.043751 2.500000 5.000000
v 4.043750 0.000000 3.519491
v 4.043751 0.000000 4.519491
v 4.043750 2.000000 3.519491
v 4.043751 2.000000 4.519491
v 3.956249 0.000000 3.519491
v 3.956250 0.000000 4.519491
v 3.956249 2.000000 3.519491
v 3.956250 2.000000 4.519491
v 3.956249 0.000000 0.043750
v 3.956251 0.000000 5.000000
v 3.956249 2.500000 0.043750
v 3.956251 2.500000 5.000000
v -4.000000 0.000000 -4.422034
v -3.999999 0.000000 -3.422034
v -4.000000 2.000000 -4.422034
v -3.999999 2.000000 -3.422034
v -4.087501 0.000000 -4.422034
v -4.087500 0.000000 -3.422034
v -4.087501 2.000000 -4.422034
v -4.087500 2.000000 -3.422034
v -4.087500 0.000000 -5.000000
v -4.087499 0.000000 -0.043750
v -4.087500 2.500000 -5.000000
v -4.087499 2.500000 -0.043750
vn -1.000000 0.000000 0.000000
vn 1.000000 0.000000 0.000000
vn 0.000000 1.000000 0.000000
vn 0.000000 0.000000 1.000000
vn 0.000000 0.801600 0.597900
vn 0.000000 -1.000000 0.000000
vn 0.000000 -0.799800 -0.600200
vn 0.000000 0.000000 -1.000000
usemtl None
s off
f 5//1 1//1 2//1 6//1
f 157//2 155//2 220//2 222//2
f 1//3 4//3 3//3 2//3
f 7//2 3//2 167//2 169//2
f 220//3 219//3 223//3 224//3
f 10//3 9//3 13//3 14//3
f 5//4 8//4 12//4 11//4
f 8//2 157//2 222//2 221//2
f 1//4 5//4 11//4 9//4
f 11//3 15//3 16//3 12//3
f 12//2 10//2 14//2 16//2
f 9//1 11//1 15//1 13//1
f 18//3 17//3 21//3 22//3
f 15//4 19//4 20//4 16//4
f 16//4 20//4 18//4 14//4
f 13//4 17//4 19//4 15//4
f 22//5 21//5 25//5 26//5
f 19//6 20//6 24//6 23//6
f 20//1 24//1 22//1 18//1
f 17//2 21//2 23//2 19//2
f 26//3 25//3 103//3 104//3
f 23//7 24//7 28//7 27//7
f 24//2 22//2 26//2 28//2
f 21//1 23//1 27//1 25//1
f 21//4 29//4 30//4 22//4
f 34//4 32//4 31//4 35//4
f 38//3 34//3 35//3 37//3
f 36//4 38//4 37//4 33//4
f 29//3 36//3 33//3 30//3
f 41//4 40//4 39//4 42//4
f 32//3 41//3 42//3 31//3
f 45//4 44//4 43//4 46//4
f 40//3 45//3 46//3 39//3
f 49//4 48//4 47//4 50//4
f 44//3 49//3 50//3 43//3
f 53//4 52//4 51//4 54//4
f 48//3 53//3 54//3 47//3
f 57//4 56//4 55//4 58//4
f 52//3 57//3 58//3 51//3
f 61//4 60//4 59//4 62//4
f 56//3 61//3 62//3 55//3
f 65//4 64//4 63//4 66//4
f 60//3 65//3 66//3 59//3
f 70//4 68//4 67//4 71//4
f 74//3 70//3 71//3 73//3
f 72//4 74//4 73//4 69//4
f 64//3 72//3 69//3 63//3
f 77//4 76//4 75//4 78//4
f 68//3 77//3 78//3 67//3
f 81//4 80//4 79//4 82//4
f 76//3 81//3 82//3 75//3
f 85//4 84//4 83//4 86//4
f 80//3 85//3 86//3 79//3
f 89//4 88//4 87//4 90//4
f 84//3 89//3 90//3 83//3
f 93//4 92//4 91//4 94//4
f 88//3 93//3 94//3 87//3
f 97//4 96//4 95//4 98//4
f 92//3 97//3 98//3 91//3
f 101//4 100//4 99//4 102//4
f 96//3 101//3 102//3 95//3
f 27//6 28//6 106//6 105//6
f 28//2 26//2 104//2 106//2
f 25//1 27//1 105//1 103//1
f 99//3 100//3 25//3 26//3
f 107//3 108//3 112//3 111//3
f 105//8 109//8 110//8 106//8
f 106//8 110//8 107//8 104//8
f 103//8 108//8 109//8 105//8
f 108//2 112//2 113//2 109//2
f 110//1 114//1 111//1 107//1
f 109//3 113//3 114//3 110//3
f 115//3 116//3 120//3 119//3
f 112//4 116//4 117//4 113//4
f 114//4 118//4 115//4 111//4
f 113//4 117//4 118//4 114//4
f 122//4 119//4 120//4 121//4
f 116//1 117//1 121//1 120//1
f 118//2 115//2 119//2 122//2
f 117//6 118//6 122//6 121//6
f 128//3 127//3 131//3 132//3
f 125//4 126//4 130//4 129//4
f 126//4 124//4 128//4 130//4
f 123//4 125//4 129//4 127//4
f 129//6 130//6 134//6 133//6
f 130//2 128//2 132//2 134//2
f 127//1 129//1 133//1 131//1
f 133//8 134//8 138//8 137//8
f 134//8 132//8 136//8 138//8
f 131//8 133//8 137//8 135//8
f 144//3 143//3 147//3 148//3
f 141//2 142//2 146//2 145//2
f 142//2 140//2 144//2 146//2
f 139//2 141//2 145//2 143//2
f 145//6 146//6 150//6 149//6
f 146//8 144//8 148//8 150//8
f 143//4 145//4 149//4 147//4
f 149//1 150//1 154//1 153//1
f 150//1 148//1 152//1 154//1
f 147//1 149//1 153//1 151//1
f 160//3 159//3 163//3 164//3
f 157//8 158//8 162//8 161//8
f 158//8 156//8 160//8 162//8
f 155//8 157//8 161//8 159//8
f 161//6 162//6 166//6 165//6
f 162//1 160//1 164//1 166//1
f 159//2 161//2 165//2 163//2
f 165//4 166//4 170//4 169//4
f 166//4 164//4 168//4 170//4
f 163//4 165//4 169//4 167//4
f 124//4 126//4 170//4 168//4
f 136//8 156//8 158//8 138//8
f 176//3 175//3 179//3 180//3
f 173//2 174//2 178//2 177//2
f 174//2 172//2 176//2 178//2
f 171//2 173//2 177//2 175//2
f 177//6 178//6 182//6 181//6
f 178//8 176//8 180//8 182//8
f 175//4 177//4 181//4 179//4
f 181//1 182//1 186//1 185//1
f 182//1 180//1 184//1 186//1
f 179//1 181//1 185//1 183//1
f 192//3 191//3 195//3 196//3
f 189//2 190//2 194//2 193//2
f 190//2 188//2 192//2 194//2
f 187//2 189//2 193//2 191//2
f 193//6 194//6 198//6 197//6
f 194//8 192//8 196//8 198//8
f 191//4 193//4 197//4 195//4
f 197//1 198//1 202//1 201//1
f 198//1 196//1 200//1 202//1
f 195//1 197//1 201//1 199//1
f 208//3 207//3 211//3 212//3
f 205//2 206//2 210//2 209//2
f 206//2 204//2 208//2 210//2
f 203//2 205//2 209//2 207//2
f 209//6 210//6 214//6 213//6
f 210//8 208//8 212//8 214//8
f 207//4 209//4 213//4 211//4
f 213//1 214//1 218//1 217//1
f 214//1 212//1 216//1 218//1
f 211//1 213//1 217//1 215//1
f 4//2 8//2 221//2 219//2
f 221//6 222//6 226//6 225//6
f 222//8 220//8 224//8 226//8
f 219//4 221//4 225//4 223//4
f 225//2 229//2 230//2 226//2
f 226//2 230//2 228//2 224//2
f 223//2 227//2 229//2 225//2
f 4//4 10//4 12//4 8//4
f 2//8 3//8 7//8 6//8
f 5//6 6//6 7//6 8//6
