# Blender v2.71 (sub 0) OBJ File: ''
# www.blender.org
mtllib Room3.mtl
o Room_Cube
v 4.101979 2.604454 0.006359
v 4.101979 2.604455 -3.638530
v 4.093561 -0.245324 -3.638532
v 4.093561 -0.245326 0.006359
v 4.071483 2.604352 -3.638530
v 4.063064 -0.245428 -3.638532
v 4.071483 2.604350 0.006359
v 4.063064 -0.245430 0.006359
v 7.975456 2.500002 -4.990962
v 7.975456 0.000002 -4.990962
v 7.975456 0.000000 0.009038
v 7.975456 2.500000 0.009038
v 0.000000 0.000000 0.009038
v 0.000000 2.500000 0.009038
v 0.000000 0.000002 -4.990962
v 0.000000 2.500002 -4.990962
v 2.500000 0.000002 -4.990962
v 1.500000 0.000002 -4.990962
v 2.500000 0.000002 -5.078462
v 1.500000 0.000002 -5.078462
v 1.500000 2.000002 -4.990962
v 2.500000 2.000002 -4.990962
v 3.000000 0.000002 -5.078462
v 1.000000 0.000002 -5.078462
v 1.500000 2.000002 -5.078462
v 2.500000 2.000002 -5.078462
v 3.000000 0.000002 -6.990962
v 0.999997 0.000002 -6.990962
v 1.000000 2.500002 -5.078462
v 3.000000 2.500002 -5.078462
v 3.000000 2.849994 -10.812012
v 1.000000 2.849994 -10.812012
v 0.999997 2.500002 -6.990962
v 2.999997 2.500002 -6.990962
v 3.000000 2.849994 -14.531674
v 1.000000 2.849994 -14.531674
v 1.000000 5.367547 -10.812010
v 3.000000 5.367547 -10.812010
v 3.000000 0.150002 -6.990962
v 0.999997 0.150002 -6.990962
v 3.000000 0.300002 -7.390959
v 3.000000 0.450002 -7.390959
v 0.999997 0.450002 -7.390959
v 0.999997 0.300002 -7.390959
v 3.000000 0.300002 -7.190961
v 0.999997 0.300002 -7.190960
v 3.000000 0.150002 -7.190962
v 0.999997 0.150002 -7.190961
v 3.000000 0.450002 -7.590959
v 3.000000 0.600000 -7.590962
v 0.999997 0.600000 -7.590961
v 0.999997 0.450002 -7.590959
v 3.000000 0.599999 -7.790962
v 3.000000 0.749999 -7.790962
v 0.999997 0.749999 -7.790961
v 0.999997 0.599999 -7.790961
v 3.000000 0.749999 -7.990962
v 3.000000 0.899999 -7.990962
v 0.999997 0.899999 -7.990962
v 0.999997 0.749999 -7.990961
v 3.000000 0.899999 -8.190961
v 3.000000 1.049999 -8.190961
v 0.999997 1.049999 -8.190961
v 0.999997 0.899999 -8.190961
v 3.000000 1.049999 -8.390962
v 3.000000 1.199999 -8.390963
v 0.999997 1.199999 -8.390963
v 0.999997 1.049999 -8.390961
v 3.000000 1.199999 -8.590961
v 3.000000 1.349999 -8.590961
v 0.999997 1.349999 -8.590961
v 0.999997 1.199999 -8.590961
v 3.000000 1.349999 -8.790962
v 3.000000 1.499999 -8.790965
v 0.999997 1.499999 -8.790963
v 0.999997 1.349999 -8.790961
v 3.000000 1.650001 -9.190964
v 3.000000 1.800002 -9.190964
v 0.999997 1.800002 -9.190963
v 0.999997 1.650001 -9.190963
v 3.000000 1.650000 -8.990966
v 0.999997 1.650000 -8.990964
v 3.000000 1.500000 -8.990966
v 0.999997 1.500000 -8.990966
v 3.000000 1.800002 -9.390964
v 3.000000 1.950000 -9.390966
v 0.999997 1.950000 -9.390965
v 0.999997 1.800002 -9.390964
v 3.000000 1.949998 -9.590966
v 3.000000 2.099999 -9.590966
v 0.999997 2.099999 -9.590966
v 0.999997 1.949998 -9.590966
v 3.000000 2.099999 -9.790966
v 3.000000 2.249999 -9.790967
v 0.999997 2.249999 -9.790967
v 0.999997 2.099999 -9.790965
v 3.000000 2.249999 -9.990966
v 3.000000 2.399999 -9.990966
v 0.999997 2.399999 -9.990966
v 0.999997 2.249999 -9.990966
v 3.000000 2.399999 -10.190967
v 3.000000 2.549999 -10.190967
v 0.999997 2.549999 -10.190967
v 0.999997 2.399999 -10.190965
v 3.000000 2.549999 -10.390965
v 3.000000 2.699999 -10.390965
v 0.999997 2.699999 -10.390965
v 0.999997 2.549999 -10.390965
v 3.000000 2.699999 -10.590966
v 3.000000 2.849999 -10.590966
v 0.999997 2.849999 -10.590966
v 0.999997 2.699999 -10.590966
v 2.500000 2.849994 -14.531672
v 1.500000 2.849994 -14.531674
v 1.000000 5.367548 -14.531672
v 3.000000 5.367548 -14.531672
v 2.500000 2.849994 -14.689684
v 1.500000 2.849994 -14.689686
v 1.500000 4.849994 -14.531672
v 2.500000 4.849994 -14.531672
v 3.000000 2.849994 -14.689683
v 1.000000 2.849994 -14.689687
v 2.500000 4.849994 -14.689684
v 1.500000 4.849994 -14.689684
v 3.000004 2.849992 -18.445448
v 1.000004 2.849992 -18.445452
v 3.000000 5.367544 -14.689685
v 1.000000 5.367544 -14.689685
v 1.000004 5.367542 -18.445452
v 3.000004 5.367542 -18.445452
vt 0.331031 0.670876
vt 0.331031 0.571458
vt 0.407479 0.571458
vt 0.407479 0.670876
vt 0.746831 0.150018
vt 0.747650 0.150024
vt 0.747650 0.227755
vt 0.746831 0.227749
vt 0.702563 0.409141
vt 0.702563 0.508559
vt 0.626115 0.508559
vt 0.626115 0.409141
vt 0.461949 0.649189
vt 0.461131 0.649194
vt 0.461130 0.571463
vt 0.461949 0.571458
vt 0.268258 0.474201
vt 0.268258 0.374783
vt 0.269076 0.374783
vt 0.269076 0.474201
vt 0.268258 0.628171
vt 0.268258 0.528753
vt 0.269076 0.528753
vt 0.269076 0.628171
vt 0.626115 0.027276
vt 0.693180 0.027276
vt 0.693180 0.163656
vt 0.626115 0.163656
vt 0.147542 0.374783
vt 0.214606 0.374783
vt 0.214606 0.592322
vt 0.147542 0.592322
vt 0.626115 0.218208
vt 0.693180 0.218208
vt 0.693180 0.354589
vt 0.626115 0.354589
vt 0.000000 0.000000
vt 0.465160 0.299367
vt 0.465160 0.516906
vt 0.331031 0.516906
vt 0.331031 0.299367
vt 0.331031 0.244815
vt 0.331031 0.027276
vt 0.465160 0.027276
vt 0.465160 0.244815
vt 0.957629 0.965590
vt 0.957629 0.938314
vt 0.959976 0.938314
vt 0.959976 0.965590
vt 0.093890 0.374783
vt 0.093890 0.592322
vt 0.080477 0.551407
vt 0.080477 0.524131
vt 0.026826 0.592322
vt 0.026826 0.551407
vt 0.026826 0.374783
vt 0.026826 0.524131
vt 0.438334 0.970913
vt 0.438334 0.943637
vt 0.440682 0.943637
vt 0.440682 0.970913
vt 0.973174 0.027276
vt 0.973174 0.081828
vt 0.970827 0.081828
vt 0.970827 0.027276
vt 0.957414 0.883762
vt 0.957414 0.829210
vt 0.959761 0.829210
vt 0.959761 0.883762
vt 0.572463 0.597521
vt 0.518812 0.597521
vt 0.518812 0.545355
vt 0.572464 0.545355
vt 0.787070 0.040914
vt 0.760244 0.040914
vt 0.746831 0.027276
vt 0.800483 0.027276
vt 0.760244 0.095466
vt 0.746831 0.095466
vt 0.787070 0.095466
vt 0.800483 0.095466
vt 0.518812 0.441132
vt 0.572463 0.441132
vt 0.518812 0.027276
vt 0.572463 0.027276
vt 0.572464 0.079441
vt 0.518812 0.079442
vt 0.196508 0.051384
vt 0.259241 0.027276
vt 0.277380 0.076073
vt 0.214646 0.100180
vt 0.107139 0.320231
vt 0.044405 0.296123
vt 0.062543 0.247326
vt 0.125277 0.271434
vt 0.518812 0.339675
vt 0.572464 0.339675
vt 0.572463 0.183665
vt 0.518812 0.183665
vt 0.242102 0.201048
vt 0.178928 0.225325
vt 0.026826 0.122182
vt 0.090000 0.146459
vt 0.931924 0.409141
vt 0.935948 0.409141
vt 0.935948 0.463693
vt 0.931924 0.463693
vt 0.919335 0.150018
vt 0.923359 0.150018
vt 0.923359 0.204570
vt 0.919335 0.204570
vt 0.085843 0.803868
vt 0.091208 0.803868
vt 0.091208 0.858420
vt 0.085843 0.858420
vt 0.899738 0.829210
vt 0.903762 0.829210
vt 0.903762 0.883762
vt 0.899738 0.883762
vt 0.032191 0.858420
vt 0.026826 0.858420
vt 0.026826 0.803868
vt 0.032191 0.803868
vt 0.957414 0.720105
vt 0.961438 0.720105
vt 0.961438 0.774658
vt 0.957414 0.774658
vt 0.196299 0.803868
vt 0.201664 0.803868
vt 0.201664 0.858420
vt 0.196299 0.858420
vt 0.913151 0.027276
vt 0.917175 0.027276
vt 0.917175 0.081828
vt 0.913151 0.081828
vt 0.438334 0.725428
vt 0.443700 0.725428
vt 0.443700 0.779981
vt 0.438334 0.779981
vt 0.922755 0.282307
vt 0.926779 0.282307
vt 0.926779 0.336859
vt 0.922755 0.336859
vt 0.820597 0.463693
vt 0.815231 0.463693
vt 0.815231 0.409141
vt 0.820597 0.409141
vt 0.923226 0.563111
vt 0.927250 0.563111
vt 0.927250 0.617663
vt 0.923226 0.617663
vt 0.268258 0.791827
vt 0.273623 0.791827
vt 0.273623 0.846380
vt 0.268258 0.846380
vt 0.084501 0.912972
vt 0.088525 0.912972
vt 0.088525 0.967525
vt 0.084501 0.967525
vt 0.756215 0.409141
vt 0.761580 0.409141
vt 0.761580 0.463693
vt 0.756215 0.463693
vt 0.196299 0.912973
vt 0.200323 0.912973
vt 0.200323 0.967525
vt 0.196299 0.967525
vt 0.524177 0.863620
vt 0.518812 0.863620
vt 0.518812 0.809067
vt 0.524177 0.809067
vt 0.026826 0.912972
vt 0.030850 0.912972
vt 0.030850 0.967525
vt 0.026826 0.967525
vt 0.806666 0.204570
vt 0.801301 0.204570
vt 0.801301 0.150018
vt 0.806666 0.150018
vt 0.438334 0.834533
vt 0.442358 0.834533
vt 0.442358 0.889085
vt 0.438334 0.889085
vt 0.840722 0.829210
vt 0.846087 0.829210
vt 0.846087 0.883762
vt 0.840722 0.883762
vt 0.741466 0.843327
vt 0.745490 0.843327
vt 0.745490 0.897879
vt 0.741466 0.897879
vt 0.752667 0.617663
vt 0.747302 0.617663
vt 0.747302 0.563111
vt 0.752667 0.563111
vt 0.518812 0.918172
vt 0.522836 0.918172
vt 0.522836 0.972724
vt 0.518812 0.972724
vt 0.268258 0.682723
vt 0.273623 0.682723
vt 0.273623 0.737275
vt 0.268258 0.737275
vt 0.874248 0.409141
vt 0.878272 0.409141
vt 0.878272 0.463693
vt 0.874248 0.463693
vt 0.811684 0.617663
vt 0.806319 0.617663
vt 0.806319 0.563111
vt 0.811684 0.563111
vt 0.268258 0.900932
vt 0.272282 0.900932
vt 0.272282 0.955484
vt 0.268258 0.955484
vt 0.865683 0.204570
vt 0.860318 0.204570
vt 0.860318 0.150018
vt 0.865683 0.150018
vt 0.683791 0.843327
vt 0.687815 0.843327
vt 0.687815 0.897879
vt 0.683791 0.897879
vt 0.846087 0.774658
vt 0.840722 0.774658
vt 0.840722 0.720105
vt 0.846087 0.720105
vt 0.626115 0.843327
vt 0.630139 0.843327
vt 0.630139 0.897879
vt 0.626115 0.897879
vt 0.752197 0.336859
vt 0.746831 0.336859
vt 0.746831 0.282307
vt 0.752197 0.282307
vt 0.899738 0.720105
vt 0.903762 0.720105
vt 0.903762 0.774658
vt 0.899738 0.774658
vt 0.859500 0.081828
vt 0.854135 0.081828
vt 0.854135 0.027276
vt 0.859500 0.027276
vt 0.331031 0.848649
vt 0.335055 0.848649
vt 0.335055 0.903201
vt 0.331031 0.903201
vt 0.805848 0.282307
vt 0.811213 0.282307
vt 0.811213 0.336859
vt 0.805848 0.336859
vt 0.142177 0.912972
vt 0.142177 0.967524
vt 0.142177 0.953886
vt 0.142177 0.926610
vt 0.572464 0.285122
vt 0.518812 0.285122
vt 0.277380 0.295953
vt 0.214206 0.320230
vt 0.062103 0.027276
vt 0.125277 0.051553
vt 0.572463 0.447162
vt 0.518812 0.447161
vt 0.840722 0.965590
vt 0.840722 0.938314
vt 0.844961 0.938314
vt 0.844961 0.965590
vt 0.626115 0.720106
vt 0.679767 0.720105
vt 0.666354 0.734222
vt 0.639528 0.734222
vt 0.679767 0.788774
vt 0.666354 0.788774
vt 0.626115 0.788774
vt 0.639528 0.788774
vt 0.869104 0.282307
vt 0.869104 0.336859
vt 0.864865 0.336859
vt 0.864865 0.282307
vt 0.865336 0.617663
vt 0.865336 0.563111
vt 0.869574 0.563111
vt 0.869574 0.617663
vt 0.899738 0.965590
vt 0.899738 0.938314
vt 0.903977 0.938314
vt 0.903977 0.965590
vt 0.518812 0.652073
vt 0.572463 0.652073
vt 0.572463 0.754515
vt 0.518812 0.754515
vt 0.773657 0.788774
vt 0.773657 0.734222
vt 0.787070 0.720105
vt 0.787070 0.788774
vt 0.746831 0.734222
vt 0.746831 0.788774
vt 0.733418 0.788774
vt 0.733418 0.720106
vt 0.384683 0.725428
vt 0.384683 0.794097
vt 0.331031 0.794097
vt 0.331031 0.725428
vt 0.094361 0.749316
vt 0.026826 0.749316
vt 0.026826 0.646874
vt 0.094361 0.646874
vt 0.693651 0.665553
vt 0.626115 0.665553
vt 0.626115 0.563111
vt 0.693651 0.563111
vt 0.201664 0.749316
vt 0.148013 0.749316
vt 0.148013 0.646874
vt 0.201664 0.646874
vn -1.000000 0.003000 0.000000
vn -0.000000 -0.000000 1.000000
vn 1.000000 -0.003000 -0.000000
vn 0.000000 0.000000 -1.000000
vn -0.003400 1.000000 0.000000
vn 0.003400 -1.000000 -0.000000
vn -1.000000 0.000000 0.000000
vn 1.000000 0.000000 0.000000
vn 0.000000 1.000000 0.000000
vn 0.000000 -1.000000 -0.000000
vn 0.000000 0.801600 0.597900
vn 0.000000 -0.799800 -0.600200
vn 0.000000 -0.986400 0.164400
usemtl None
s off
f 1/1/1 2/2/1 3/3/1 4/4/1
f 2/5/2 5/6/2 6/7/2 3/8/2
f 5/9/3 7/10/3 8/11/3 6/12/3
f 7/13/4 1/14/4 4/15/4 8/16/4
f 4/17/5 3/18/5 6/19/5 8/20/5
f 2/21/6 1/22/6 7/23/6 5/24/6
f 9/25/7 10/26/7 11/27/7 12/28/7
f 12/29/4 11/30/4 13/31/4 14/32/4
f 14/33/8 13/34/8 15/35/8 16/36/8
f 15/37/4 10/37/4 17/37/4 18/37/4
f 10/38/9 15/39/9 13/40/9 11/41/9
f 16/42/10 9/43/10 12/44/10 14/45/10
f 18/46/9 17/47/9 19/48/9 20/49/9
f 9/50/2 16/51/2 21/52/2 22/53/2
f 16/51/2 15/54/2 18/55/2 21/52/2
f 10/56/2 9/50/2 22/53/2 17/57/2
f 20/37/2 19/37/2 23/37/2 24/37/2
f 22/58/10 21/59/10 25/60/10 26/61/10
f 21/62/8 18/63/8 20/64/8 25/65/8
f 17/66/7 22/67/7 26/68/7 19/69/7
f 24/70/9 23/71/9 27/72/9 28/73/9
f 26/74/4 25/75/4 29/76/4 30/77/4
f 25/75/4 20/78/4 24/79/4 29/76/4
f 19/80/4 26/74/4 30/77/4 23/81/4
f 28/73/11 27/72/11 31/82/11 32/83/11
f 30/84/10 29/85/10 33/86/10 34/87/10
f 29/88/8 24/89/8 28/90/8 33/91/8
f 23/92/7 30/93/7 34/94/7 27/95/7
f 32/83/9 31/82/9 35/96/9 36/97/9
f 34/87/12 33/86/12 37/98/12 38/99/12
f 33/91/8 28/90/8 32/100/8 37/101/8
f 27/95/7 34/94/7 38/102/7 31/103/7
f 27/104/2 39/105/2 40/106/2 28/107/2
f 41/108/2 42/109/2 43/110/2 44/111/2
f 45/112/9 41/113/9 44/114/9 46/115/9
f 47/116/2 45/117/2 46/118/2 48/119/2
f 39/120/9 47/121/9 48/122/9 40/123/9
f 49/124/2 50/125/2 51/126/2 52/127/2
f 42/128/9 49/129/9 52/130/9 43/131/9
f 53/132/2 54/133/2 55/134/2 56/135/2
f 50/136/9 53/137/9 56/138/9 51/139/9
f 57/140/2 58/141/2 59/142/2 60/143/2
f 54/144/9 57/145/9 60/146/9 55/147/9
f 61/148/2 62/149/2 63/150/2 64/151/2
f 58/152/9 61/153/9 64/154/9 59/155/9
f 65/156/2 66/157/2 67/158/2 68/159/2
f 62/160/9 65/161/9 68/162/9 63/163/9
f 69/164/2 70/165/2 71/166/2 72/167/2
f 66/168/9 69/169/9 72/170/9 67/171/9
f 73/172/2 74/173/2 75/174/2 76/175/2
f 70/176/9 73/177/9 76/178/9 71/179/9
f 77/180/2 78/181/2 79/182/2 80/183/2
f 81/184/9 77/185/9 80/186/9 82/187/9
f 83/188/2 81/189/2 82/190/2 84/191/2
f 74/192/9 83/193/9 84/194/9 75/195/9
f 85/196/2 86/197/2 87/198/2 88/199/2
f 78/200/9 85/201/9 88/202/9 79/203/9
f 89/204/2 90/205/2 91/206/2 92/207/2
f 86/208/9 89/209/9 92/210/9 87/211/9
f 93/212/2 94/213/2 95/214/2 96/215/2
f 90/216/9 93/217/9 96/218/9 91/219/9
f 97/220/2 98/221/2 99/222/2 100/223/2
f 94/224/9 97/225/9 100/226/9 95/227/9
f 101/228/2 102/229/2 103/230/2 104/231/2
f 98/232/9 101/233/9 104/234/9 99/235/9
f 105/236/2 106/237/2 107/238/2 108/239/2
f 102/240/9 105/241/9 108/242/9 103/243/9
f 109/244/2 110/245/2 111/246/2 112/247/2
f 106/248/9 109/249/9 112/250/9 107/251/9
f 36/252/13 35/253/13 113/254/13 114/255/13
f 38/99/10 37/98/10 115/256/10 116/257/10
f 37/101/8 32/100/8 36/258/8 115/259/8
f 31/103/7 38/102/7 116/260/7 35/261/7
f 111/262/9 110/263/9 31/82/9 32/83/9
f 114/264/9 113/265/9 117/266/9 118/267/9
f 116/268/2 115/269/2 119/270/2 120/271/2
f 115/269/2 36/272/2 114/273/2 119/270/2
f 35/274/2 116/268/2 120/271/2 113/275/2
f 118/37/2 117/37/2 121/37/2 122/37/2
f 113/276/7 120/277/7 123/278/7 117/279/7
f 119/280/8 114/281/8 118/282/8 124/283/8
f 120/284/10 119/285/10 124/286/10 123/287/10
f 122/288/9 121/289/9 125/290/9 126/291/9
f 117/292/4 123/293/4 127/294/4 121/295/4
f 124/296/4 118/297/4 122/298/4 128/299/4
f 123/293/4 124/296/4 128/299/4 127/294/4
f 129/300/2 126/301/2 125/302/2 130/303/2
f 121/304/7 127/305/7 130/306/7 125/307/7
f 128/308/8 122/309/8 126/310/8 129/311/8
f 127/312/10 128/313/10 129/314/10 130/315/10
