# Blender v2.71 (sub 0) OBJ File: ''
# www.blender.org
mtllib light4.mtl
o Cube.002
v -0.023428 -0.156116 -0.156116
v 0.045065 -0.156116 -0.156116
v 0.045065 -0.156116 0.156116
v -0.023428 -0.156116 0.156116
v -0.023428 0.156116 -0.156116
v -0.023428 0.156116 0.156116
v 0.001791 0.156116 0.156116
v 0.001791 0.156116 -0.156116
vn 0.000000 -1.000000 0.000000
vn 0.000000 1.000000 0.000000
vn 0.000000 0.000000 -1.000000
vn 0.990500 0.137300 0.000000
vn 0.000000 0.000000 1.000000
vn -1.000000 0.000000 -0.000000
usemtl Material.001
s off
f 1//1 2//1 3//1 4//1
f 5//2 6//2 7//2 8//2
f 1//3 5//3 8//3 2//3
f 2//4 8//4 7//4 3//4
f 3//5 7//5 6//5 4//5
f 5//6 1//6 4//6 6//6
