# Blender v2.71 (sub 0) OBJ File: 'Bed2.blend'
# www.blender.org
o Bed_Cube.002
v -0.500002 0.175000 1.000000
v -0.499998 0.175000 -1.000000
v 0.500001 0.175000 -1.000000
v 0.500000 0.175000 1.000000
v -0.500002 0.225000 1.000000
v -0.499998 0.225000 -1.000000
v 0.500001 0.225000 -1.000000
v 0.499998 0.225000 1.000000
v 0.363365 0.000000 -0.936635
v 0.363365 0.000000 -0.863365
v 0.436635 0.000000 -0.863365
v 0.436635 0.000000 -0.936635
v 0.350000 0.176711 -0.950000
v 0.350000 0.176711 -0.850000
v 0.450000 0.176711 -0.850000
v 0.450000 0.176711 -0.950000
v 0.363365 0.000000 0.863365
v 0.363365 0.000000 0.936635
v 0.436635 0.000000 0.936635
v 0.436635 0.000000 0.863365
v 0.350000 0.176711 0.850000
v 0.350000 0.176711 0.950000
v 0.450000 0.176711 0.950000
v 0.450000 0.176711 0.850000
v -0.436635 0.000000 -0.936635
v -0.436635 0.000000 -0.863365
v -0.363365 0.000000 -0.863365
v -0.363365 0.000000 -0.936635
v -0.450000 0.176711 -0.950000
v -0.450000 0.176711 -0.850000
v -0.350000 0.176711 -0.850000
v -0.350000 0.176711 -0.950000
v -0.436635 0.000000 0.863365
v -0.436635 0.000000 0.936635
v -0.363365 0.000000 0.936635
v -0.363365 0.000000 0.863365
v -0.450000 0.176711 0.850000
v -0.450000 0.176711 0.950000
v -0.350000 0.176711 0.950000
v -0.350000 0.176711 0.850000
vt 0.836061 0.800982
vt 0.436032 0.800981
vt 0.436032 0.011837
vt 0.836061 0.011838
vt 0.860063 0.011837
vt 0.880028 0.011837
vt 0.880028 0.800982
vt 0.947996 0.824656
vt 0.947996 0.430084
vt 0.967961 0.430084
vt 0.923994 0.800981
vt 0.904030 0.800981
vt 0.904030 0.011837
vt 0.967961 0.406410
vt 0.947996 0.406410
vt 0.947996 0.011837
vt 0.012001 0.800982
vt 0.012002 0.011837
vt 0.412030 0.011837
vt 0.609390 0.824656
vt 0.638700 0.824656
vt 0.644047 0.894573
vt 0.366681 0.894572
vt 0.337370 0.894572
vt 0.332024 0.824656
vt 0.801404 0.824656
vt 0.830714 0.824656
vt 0.836061 0.894573
vt 0.865409 0.824656
vt 0.894719 0.824656
vt 0.900065 0.894573
vt 0.441340 0.918247
vt 0.441340 0.947157
vt 0.412030 0.947157
vt 0.076006 0.957704
vt 0.076006 0.918247
vt 0.116008 0.918247
vt 0.673395 0.824656
vt 0.702705 0.824656
vt 0.708052 0.894573
vt 0.174667 0.894572
vt 0.145357 0.894572
vt 0.140010 0.824656
vt 0.982653 0.918247
vt 0.953343 0.918247
vt 0.947996 0.848331
vt 0.574696 0.894573
vt 0.545386 0.894573
vt 0.540039 0.824656
vt 0.361334 0.918247
vt 0.361334 0.947157
vt 0.332024 0.947157
vt 0.268019 0.957704
vt 0.268019 0.918247
vt 0.308022 0.918247
vt 0.017347 0.824656
vt 0.046657 0.824656
vt 0.052004 0.894572
vt 0.302676 0.894572
vt 0.273366 0.894572
vt 0.268019 0.824656
vt 0.046657 0.988163
vt 0.017347 0.988163
vt 0.012001 0.918247
vt 0.446687 0.894573
vt 0.417376 0.894573
vt 0.412030 0.824656
vt 0.505345 0.918247
vt 0.505345 0.947157
vt 0.476035 0.947157
vt 0.140010 0.957704
vt 0.140010 0.918247
vt 0.180013 0.918247
vt 0.481381 0.824656
vt 0.510691 0.824656
vt 0.516038 0.894573
vt 0.110662 0.894572
vt 0.081352 0.894572
vt 0.076006 0.824656
vt 0.209361 0.824656
vt 0.238671 0.824656
vt 0.244018 0.894572
vt 0.766710 0.894573
vt 0.737400 0.894573
vt 0.732053 0.824656
vt 0.558657 0.918247
vt 0.558657 0.947157
vt 0.529347 0.947157
vt 0.204015 0.957704
vt 0.204015 0.918247
vt 0.244018 0.918247
vt 0.860063 0.800982
vt 0.967961 0.824656
vt 0.923995 0.011837
vt 0.967961 0.011838
vt 0.412030 0.800981
vt 0.604044 0.894573
vt 0.372027 0.824656
vt 0.796058 0.894573
vt 0.860063 0.894573
vt 0.412030 0.918247
vt 0.116008 0.957704
vt 0.668049 0.894573
vt 0.180013 0.824656
vt 0.987999 0.848331
vt 0.580042 0.824656
vt 0.332024 0.918247
vt 0.308022 0.957704
vt 0.012001 0.894572
vt 0.308022 0.824656
vt 0.052004 0.918247
vt 0.452033 0.824656
vt 0.476035 0.918247
vt 0.180013 0.957704
vt 0.476035 0.894573
vt 0.116008 0.824656
vt 0.204015 0.894572
vt 0.772056 0.824656
vt 0.529347 0.918247
vt 0.244018 0.957704
vn 0.000000 1.000000 0.000000
vn -1.000000 0.000000 -0.000000
vn 0.000000 0.000000 -1.000000
vn 1.000000 0.000100 0.000000
vn 0.000000 0.000000 1.000000
vn 0.000000 -1.000000 -0.000000
vn -0.997200 -0.075400 0.000000
vn 0.000000 -0.075400 0.997200
vn 0.997200 -0.075400 0.000000
vn 0.000000 -0.075400 -0.997200
vn 1.000000 0.000000 0.000000
s off
f 7/1/1 6/2/1 5/3/1
f 8/4/1 7/1/1 5/3/1
f 6/5/2 2/6/2 1/7/2
f 6/8/3 7/9/3 3/10/3
f 8/11/4 4/12/4 3/13/4
f 5/14/5 1/15/5 4/16/5
f 1/17/6 2/18/6 3/19/6
f 9/20/7 10/21/7 14/22/7
f 10/23/8 11/24/8 15/25/8
f 11/26/9 12/27/9 16/28/9
f 12/29/10 9/30/10 13/31/10
f 12/32/6 11/33/6 10/34/6
f 13/35/1 14/36/1 15/37/1
f 17/38/7 18/39/7 22/40/7
f 18/41/8 19/42/8 23/43/8
f 19/44/9 20/45/9 24/46/9
f 20/47/10 17/48/10 21/49/10
f 20/50/6 19/51/6 18/52/6
f 21/53/1 22/54/1 23/55/1
f 25/56/7 26/57/7 30/58/7
f 26/59/8 27/60/8 31/61/8
f 27/62/9 28/63/9 32/64/9
f 28/65/10 25/66/10 29/67/10
f 28/68/6 27/69/6 26/70/6
f 29/71/1 30/72/1 31/73/1
f 33/74/7 34/75/7 38/76/7
f 34/77/8 35/78/8 39/79/8
f 35/80/9 36/81/9 40/82/9
f 36/83/10 33/84/10 37/85/10
f 36/86/6 35/87/6 34/88/6
f 37/89/1 38/90/1 39/91/1
f 5/92/2 6/5/2 1/7/2
f 2/93/3 6/8/3 3/10/3
f 7/94/11 8/11/11 3/13/11
f 8/95/5 5/14/5 4/16/5
f 4/96/6 1/17/6 3/19/6
f 13/97/7 9/20/7 14/22/7
f 14/98/8 10/23/8 15/25/8
f 15/99/9 11/26/9 16/28/9
f 16/100/10 12/29/10 13/31/10
f 9/101/6 12/32/6 10/34/6
f 16/102/1 13/35/1 15/37/1
f 21/103/7 17/38/7 22/40/7
f 22/104/8 18/41/8 23/43/8
f 23/105/9 19/44/9 24/46/9
f 24/106/10 20/47/10 21/49/10
f 17/107/6 20/50/6 18/52/6
f 24/108/1 21/53/1 23/55/1
f 29/109/7 25/56/7 30/58/7
f 30/110/8 26/59/8 31/61/8
f 31/111/9 27/62/9 32/64/9
f 32/112/10 28/65/10 29/67/10
f 25/113/6 28/68/6 26/70/6
f 32/114/1 29/71/1 31/73/1
f 37/115/7 33/74/7 38/76/7
f 38/116/8 34/77/8 39/79/8
f 39/117/9 35/80/9 40/82/9
f 40/118/10 36/83/10 37/85/10
f 33/119/6 36/86/6 34/88/6
f 40/120/1 37/89/1 39/91/1
